<?xml version="1.0" encoding="UTF-8"?><svg xmlns="http://www.w3.org/2000/svg" xmlns:xlink="http://www.w3.org/1999/xlink" fill-opacity="1" color-rendering="auto" color-interpolation="auto" text-rendering="auto" stroke="black" stroke-linecap="square" width="766" stroke-miterlimit="10" shape-rendering="auto" stroke-opacity="1" fill="black" stroke-dasharray="none" font-weight="normal" stroke-width="1" height="351" font-family="'Dialog'" font-style="normal" stroke-linejoin="miter" font-size="12px" stroke-dashoffset="0" image-rendering="auto">
  <!--Generated by ySVG 2.5-->
  <defs id="genericDefs"/>
  <g>
    <defs id="defs1">
      <clipPath clipPathUnits="userSpaceOnUse" id="clipPath1">
        <path d="M0 0 L766 0 L766 351 L0 351 L0 0 Z"/>
      </clipPath>
      <clipPath clipPathUnits="userSpaceOnUse" id="clipPath2">
        <path d="M140 26 L906 26 L906 377 L140 377 L140 26 Z"/>
      </clipPath>
    </defs>
    <g fill="white" text-rendering="geometricPrecision" shape-rendering="geometricPrecision" transform="translate(-140,-26)" stroke="white">
      <rect x="140" width="766" height="351" y="26" clip-path="url(#clipPath2)" stroke="none"/>
    </g>
    <g fill="rgb(204,255,255)" text-rendering="geometricPrecision" shape-rendering="geometricPrecision" transform="matrix(1,0,0,1,-140,-26)" stroke="rgb(204,255,255)">
      <rect x="155" y="170" clip-path="url(#clipPath2)" width="303" rx="4" ry="4" height="63" stroke="none"/>
    </g>
    <g text-rendering="geometricPrecision" stroke-miterlimit="1.45" shape-rendering="geometricPrecision" transform="matrix(1,0,0,1,-140,-26)" stroke-linecap="butt">
      <rect x="155" y="170" clip-path="url(#clipPath2)" fill="none" width="303" rx="4" ry="4" height="63"/>
      <text x="186.9292" font-size="18px" y="208.5708" clip-path="url(#clipPath2)" font-family="sans-serif" stroke="none" xml:space="preserve">Select map source and region</text>
    </g>
    <g fill="rgb(204,255,255)" text-rendering="geometricPrecision" shape-rendering="geometricPrecision" transform="matrix(1,0,0,1,-140,-26)" stroke="rgb(204,255,255)">
      <rect x="155" y="299" clip-path="url(#clipPath2)" width="303" rx="4" ry="4" height="63" stroke="none"/>
    </g>
    <g text-rendering="geometricPrecision" stroke-miterlimit="1.45" shape-rendering="geometricPrecision" transform="matrix(1,0,0,1,-140,-26)" stroke-linecap="butt">
      <rect x="155" y="299" clip-path="url(#clipPath2)" fill="none" width="303" rx="4" ry="4" height="63"/>
      <text x="227.9609" font-size="18px" y="337.5708" clip-path="url(#clipPath2)" font-family="sans-serif" stroke="none" xml:space="preserve">Download map tiles</text>
    </g>
    <g fill="rgb(204,255,204)" text-rendering="geometricPrecision" shape-rendering="geometricPrecision" transform="matrix(1,0,0,1,-140,-26)" stroke="rgb(204,255,204)">
      <rect x="588" y="41" clip-path="url(#clipPath2)" width="303" rx="4" ry="4" height="63" stroke="none"/>
    </g>
    <g text-rendering="geometricPrecision" stroke-miterlimit="1.45" shape-rendering="geometricPrecision" transform="matrix(1,0,0,1,-140,-26)" stroke-linecap="butt">
      <rect x="588" y="41" clip-path="url(#clipPath2)" fill="none" width="303" rx="4" ry="4" height="63"/>
      <text x="639.9683" font-size="18px" y="79.5708" clip-path="url(#clipPath2)" font-family="sans-serif" stroke="none" xml:space="preserve">Go offline (start your trip)</text>
    </g>
    <g fill="rgb(204,255,204)" text-rendering="geometricPrecision" shape-rendering="geometricPrecision" transform="matrix(1,0,0,1,-140,-26)" stroke="rgb(204,255,204)">
      <rect x="588" y="170" clip-path="url(#clipPath2)" width="303" rx="4" ry="4" height="63" stroke="none"/>
    </g>
    <g text-rendering="geometricPrecision" stroke-miterlimit="1.45" shape-rendering="geometricPrecision" transform="matrix(1,0,0,1,-140,-26)" stroke-linecap="butt">
      <rect x="588" y="170" clip-path="url(#clipPath2)" fill="none" width="303" rx="4" ry="4" height="63"/>
      <text x="663.9712" font-size="18px" y="208.5708" clip-path="url(#clipPath2)" font-family="sans-serif" stroke="none" xml:space="preserve">Start the tile server</text>
    </g>
    <g fill="rgb(204,255,204)" text-rendering="geometricPrecision" shape-rendering="geometricPrecision" transform="matrix(1,0,0,1,-140,-26)" stroke="rgb(204,255,204)">
      <rect x="588" y="299" clip-path="url(#clipPath2)" width="303" rx="4" ry="4" height="63" stroke="none"/>
    </g>
    <g text-rendering="geometricPrecision" stroke-miterlimit="1.45" shape-rendering="geometricPrecision" transform="matrix(1,0,0,1,-140,-26)" stroke-linecap="butt">
      <rect x="588" y="299" clip-path="url(#clipPath2)" fill="none" width="303" rx="4" ry="4" height="63"/>
      <text x="612.9331" font-size="18px" y="337.5708" clip-path="url(#clipPath2)" font-family="sans-serif" stroke="none" xml:space="preserve">Make your map available offline</text>
    </g>
    <g fill="rgb(204,255,255)" text-rendering="geometricPrecision" shape-rendering="geometricPrecision" transform="matrix(1,0,0,1,-140,-26)" stroke="rgb(204,255,255)">
      <rect x="155" y="41" clip-path="url(#clipPath2)" width="303" rx="4" ry="4" height="63" stroke="none"/>
    </g>
    <g text-rendering="geometricPrecision" stroke-miterlimit="1.45" shape-rendering="geometricPrecision" transform="matrix(1,0,0,1,-140,-26)" stroke-linecap="butt">
      <rect x="155" y="41" clip-path="url(#clipPath2)" fill="none" width="303" rx="4" ry="4" height="63"/>
      <text x="186.9468" font-size="18px" y="79.5708" clip-path="url(#clipPath2)" font-family="sans-serif" stroke="none" xml:space="preserve">Download QOfflineMapServer</text>
      <path fill="none" d="M306.5 233.0256 L306.5 289.0398" stroke-width="3" clip-path="url(#clipPath2)"/>
      <path d="M306.5 299.0398 L312.75 284.0398 L306.5 287.7898 L300.25 284.0398 Z" stroke-width="3" clip-path="url(#clipPath2)" stroke="none"/>
      <path fill="none" d="M458.0257 330.5 L525 330.5 L525 72.5 L578.0251 72.5" stroke-width="3" clip-path="url(#clipPath2)"/>
      <path d="M588.0251 72.5 L573.0251 66.25 L576.7751 72.5 L573.0251 78.75 Z" stroke-width="3" clip-path="url(#clipPath2)" stroke="none"/>
      <path fill="none" d="M739.5 104.0256 L739.5 160.0398" stroke-width="3" clip-path="url(#clipPath2)"/>
      <path d="M739.5 170.0398 L745.75 155.0398 L739.5 158.7898 L733.25 155.0398 Z" stroke-width="3" clip-path="url(#clipPath2)" stroke="none"/>
      <path fill="none" d="M739.5 233.0256 L739.5 289.0398" stroke-width="3" clip-path="url(#clipPath2)"/>
      <path d="M739.5 299.0398 L745.75 284.0398 L739.5 287.7898 L733.25 284.0398 Z" stroke-width="3" clip-path="url(#clipPath2)" stroke="none"/>
      <path fill="none" d="M306.5 104.0256 L306.5 160.0398" stroke-width="3" clip-path="url(#clipPath2)"/>
      <path d="M306.5 170.0398 L312.75 155.0398 L306.5 158.7898 L300.25 155.0398 Z" stroke-width="3" clip-path="url(#clipPath2)" stroke="none"/>
    </g>
  </g>
</svg>
